<svg width="25" height="25" viewBox="0 0 25 25" fill="none" xmlns="http://www.w3.org/2000/svg">
<path d="M20.9488 20.1463L15.23 11.165L20.8288 5.00656C21.0252 4.78511 21.1265 4.49515 21.1106 4.19955C21.0947 3.90394 20.9629 3.62652 20.7438 3.42742C20.5247 3.22833 20.236 3.12361 19.9402 3.13596C19.6445 3.14832 19.3655 3.27676 19.1638 3.49344L13.9822 9.19719L10.4488 3.64625C10.3472 3.48659 10.207 3.35512 10.0412 3.26401C9.87536 3.1729 9.68922 3.12509 9.50001 3.125H5.00001C4.79848 3.12509 4.60068 3.17932 4.42728 3.28201C4.25388 3.38469 4.11124 3.53208 4.01429 3.70874C3.91733 3.88541 3.86961 4.08488 3.87611 4.28631C3.88262 4.48773 3.94311 4.6837 4.05126 4.85375L9.77001 13.835L4.16751 19.9934C4.06607 20.1024 3.98727 20.2304 3.93567 20.3701C3.88407 20.5097 3.8607 20.6582 3.86692 20.8069C3.87313 20.9557 3.90881 21.1017 3.97187 21.2366C4.03494 21.3714 4.12415 21.4924 4.23432 21.5925C4.34449 21.6927 4.47344 21.7699 4.6137 21.8198C4.75395 21.8698 4.90271 21.8914 5.05137 21.8834C5.20003 21.8754 5.34562 21.8379 5.47971 21.7733C5.6138 21.7086 5.73371 21.6179 5.83251 21.5066L11.0178 15.8028L14.5513 21.3538C14.6528 21.5134 14.793 21.6449 14.9588 21.736C15.1247 21.8271 15.3108 21.8749 15.5 21.875H20C20.2015 21.8749 20.3993 21.8207 20.5727 21.718C20.7461 21.6153 20.8888 21.4679 20.9857 21.2913C21.0827 21.1146 21.1304 20.9151 21.1239 20.7137C21.1174 20.5123 21.0569 20.3163 20.9488 20.1463ZM16.1178 19.625L7.04938 5.375H8.8822L17.9506 19.625H16.1178Z" fill="#21201C"/>
</svg>
