<svg width="25" height="25" viewBox="0 0 25 25" fill="none" xmlns="http://www.w3.org/2000/svg">
<path d="M21.875 12.5C21.8749 14.7074 21.0959 16.844 19.6751 18.5335C18.2543 20.2229 16.283 21.3569 14.1083 21.7356C11.9336 22.1142 9.69497 21.7134 7.78678 20.6036C5.87859 19.4938 4.4232 17.7463 3.67696 15.6688C2.93071 13.5914 2.94147 11.3172 3.70734 9.24687C4.47322 7.17655 5.94508 5.44288 7.86368 4.35121C9.78229 3.25954 12.0246 2.87989 14.1956 3.27914C16.3666 3.67839 18.3272 4.83092 19.7319 6.53374C19.8259 6.64769 19.8966 6.77904 19.9399 6.9203C19.9832 7.06157 19.9983 7.20997 19.9842 7.35705C19.9701 7.50413 19.9273 7.647 19.858 7.77751C19.7887 7.90801 19.6944 8.02359 19.5805 8.11765C19.4665 8.21171 19.3352 8.2824 19.1939 8.3257C19.0526 8.369 18.9042 8.38404 18.7572 8.36999C18.6101 8.35593 18.4672 8.31303 18.3367 8.24376C18.2062 8.17449 18.0906 8.08019 17.9966 7.96624C16.9598 6.70948 15.5237 5.84596 13.9276 5.5196C12.3314 5.19324 10.6716 5.42375 9.2248 6.17271C7.77798 6.92168 6.63153 8.14385 5.97651 9.63556C5.3215 11.1273 5.19748 12.7984 5.62513 14.3705C6.05279 15.9425 7.00628 17.3205 8.3267 18.2748C9.64712 19.2292 11.2547 19.7022 12.8816 19.615C14.5084 19.5278 16.0562 18.8857 17.2671 17.7957C18.478 16.7058 19.2787 15.2337 19.5359 13.625H12.5C12.2016 13.625 11.9155 13.5065 11.7045 13.2955C11.4935 13.0845 11.375 12.7984 11.375 12.5C11.375 12.2016 11.4935 11.9155 11.7045 11.7045C11.9155 11.4935 12.2016 11.375 12.5 11.375H20.75C21.0484 11.375 21.3345 11.4935 21.5455 11.7045C21.7565 11.9155 21.875 12.2016 21.875 12.5Z" fill="#21201C"/>
</svg>
