<svg width="25" height="24" viewBox="0 0 25 24" fill="none" xmlns="http://www.w3.org/2000/svg">
<path d="M20.5306 9.53063L13.0306 17.0306C12.961 17.1004 12.8782 17.1557 12.7872 17.1934C12.6961 17.2312 12.5986 17.2506 12.5 17.2506C12.4014 17.2506 12.3038 17.2312 12.2128 17.1934C12.1217 17.1557 12.039 17.1004 11.9694 17.0306L4.46936 9.53063C4.32863 9.3899 4.24957 9.19902 4.24957 9C4.24957 8.80098 4.32863 8.61011 4.46936 8.46938C4.6101 8.32865 4.80097 8.24958 4.99999 8.24958C5.19901 8.24958 5.38988 8.32865 5.53061 8.46938L12.5 15.4397L19.4694 8.46938C19.539 8.39969 19.6218 8.34442 19.7128 8.30671C19.8039 8.26899 19.9014 8.24958 20 8.24958C20.0985 8.24958 20.1961 8.26899 20.2872 8.30671C20.3782 8.34442 20.4609 8.39969 20.5306 8.46938C20.6003 8.53906 20.6556 8.62178 20.6933 8.71283C20.731 8.80387 20.7504 8.90146 20.7504 9C20.7504 9.09855 20.731 9.19613 20.6933 9.28717C20.6556 9.37822 20.6003 9.46094 20.5306 9.53063Z" fill="#EEEEEC"/>
</svg>
